<svg xmlns="http://www.w3.org/2000/svg" xmlns:xlink="http://www.w3.org/1999/xlink" width="250" zoomAndPan="magnify" viewBox="0 0 187.5 187.499992" height="250" preserveAspectRatio="xMidYMid meet" version="1.0"><defs><clipPath id="59e26f7454"><path d="M 42 9 L 184.253906 9 L 184.253906 177.917969 L 42 177.917969 Z M 42 9 " clip-rule="nonzero"/></clipPath><clipPath id="34517cdd98"><path d="M 1.992188 8.867188 L 83 8.867188 L 83 177.917969 L 1.992188 177.917969 Z M 1.992188 8.867188 " clip-rule="nonzero"/></clipPath><clipPath id="432ca2ebad"><path d="M 1.949219 83.445312 L 78.699219 83.445312 L 78.699219 108.738281 L 1.949219 108.738281 Z M 1.949219 83.445312 " clip-rule="nonzero"/></clipPath><clipPath id="e239cf7e7e"><path d="M 21.15625 108.738281 L 78.699219 108.738281 L 78.699219 83.445312 L 21.15625 83.445312 L 1.976562 96.078125 Z M 21.15625 108.738281 " clip-rule="nonzero"/></clipPath></defs><g clip-path="url(#59e26f7454)"><path fill="#003399" d="M 153.648438 146.398438 C 153.648438 146.398438 153.648438 146.398438 153.726562 146.320312 C 153.363281 146.03125 153.066406 145.6875 152.832031 145.289062 C 152.953125 146.828125 155.125 143.75 161.917969 129.484375 C 162.660156 127.636719 171.160156 112.050781 171.007812 92.875 C 170.542969 48.375 134.65625 13.117188 90.128906 9.066406 L 90.359375 35.761719 C 121.550781 39.933594 144.019531 66.425781 144.269531 93.105469 C 144.09375 98.339844 143.152344 103.433594 141.449219 108.382812 C 141.039062 110.078125 140.523438 111.742188 139.910156 113.375 C 139.261719 114.667969 137.660156 118.195312 136.429688 120.660156 C 135.964844 121.597656 135.859375 121.800781 135.734375 122.078125 C 134.660156 124.574219 133.191406 126.8125 131.328125 128.792969 L 90.804688 84.695312 L 91.28125 129.160156 L 109.179688 146.8125 C 107.996094 147.320312 106.316406 148 104.28125 148.660156 C 98.632812 150.375 92.855469 151.300781 86.953125 151.433594 C 77.976562 151.433594 59.628906 145.613281 42.285156 129.609375 L 42.609375 165.203125 C 45.878906 167.421875 49.296875 169.367188 52.871094 171.046875 C 56.445312 172.722656 60.128906 174.109375 63.917969 175.207031 C 67.710938 176.304688 71.566406 177.097656 75.484375 177.585938 C 79.402344 178.078125 83.332031 178.257812 87.277344 178.125 C 91.222656 178.183594 95.144531 177.929688 99.046875 177.367188 C 102.953125 176.804688 106.789062 175.941406 110.554688 174.777344 C 114.324219 173.609375 117.976562 172.15625 121.511719 170.414062 C 125.050781 168.671875 128.429688 166.664062 131.652344 164.386719 L 145.097656 177.601562 L 185.144531 177.234375 Z M 153.648438 146.398438 " fill-opacity="1" fill-rule="nonzero"/></g><g clip-path="url(#34517cdd98)"><path fill="#003399" d="M 82.042969 35.558594 L 82.042969 8.867188 C 37.511719 13.273438 1.949219 48.882812 1.949219 93.367188 L 1.949219 177.863281 L 28.625 177.863281 L 28.625 93.367188 C 28.625 66.703125 50.867188 40.011719 82.042969 35.558594 Z M 82.042969 35.558594 " fill-opacity="1" fill-rule="nonzero"/></g><g clip-path="url(#432ca2ebad)"><g clip-path="url(#e239cf7e7e)"><path fill="#003399" d="M 1.949219 83.445312 L 78.699219 83.445312 L 78.699219 108.769531 L 1.949219 108.769531 Z M 1.949219 83.445312 " fill-opacity="1" fill-rule="nonzero"/></g></g></svg>