<svg xmlns="http://www.w3.org/2000/svg"  viewBox="0 0 48 48" width="48px" height="48px"><path fill="#f8bbd0" d="M5.999,26L5.999,26c0.042,7.334,5.576,13,12.402,13h1.862c0.338-0.604,0.971-1,1.736-1h1c0.765,0,1.4,0.396,1.737,1h1.904c6.826,0,12.359-6.128,12.359-13l0,0c0-6.873-5.533-12-12.36-12H18.4C11.575,14,6.04,19.589,5.999,26z"/><path fill="#ff80ab" d="M23.805 38.18c.714.332 1.194 1.075 1.194 1.82 0 1 0 3 2 3h5c.568 0 1-.431 1-1 0 0-.124-4.643.977-5.629.017-.015.025-.033.04-.048C31.956 37.98 29.409 39 26.64 39h-1.904C24.528 38.629 24.199 38.351 23.805 38.18zM37.189 32.613c.014-.019.031-.027.044-.052C37.999 31 39.901 30.642 40.999 30s.953-.865 1-2v-4c0-1.136.071-1.314-1-2-.972-.623-2.73-.794-3.796-2.314 1.132 1.81 1.796 3.955 1.796 6.314C38.999 28.368 38.33 30.641 37.189 32.613zM10.999 14c0-.552-.447-1-1-1-2.206 0-4 1.794-4 4 0 1.315.646 2.474 1.627 3.203.337-.574.719-1.122 1.145-1.636C8.305 18.2 7.999 17.638 7.999 17c0-1.103.897-2 2-2C10.552 15 10.999 14.552 10.999 14zM10.362 35.917c.069.107.162.208.309.294C12.259 37.135 11.999 42 11.999 42c0 .569.63 1 .864 1h5.136c2 0 2-2 2-3 0-.745.48-1.488 1.194-1.819-.394.17-.723.448-.931.819H18.4C15.33 39 12.527 37.847 10.362 35.917zM36.902 12c0 0-4.803 0-6.403.801-1.602.801-2.402 2.096-2.402 4.002 0 1.907 1.685 2.994 4.002 3.203 2.318.209 2.327-1.096 2.402-2.402C34.737 13.497 36.902 12 36.902 12z"/><path fill="#0d47a1" d="M35.999 21A1 1 0 1 0 35.999 23A1 1 0 1 0 35.999 21Z"/><path fill="#880e4f" d="M16.999 15H26.999V17H16.999z"/><path fill="#ffc107" d="M21.999 4A6 6 0 1 0 21.999 16A6 6 0 1 0 21.999 4Z"/><path fill="#ff9800" d="M16.351,12c0.823,2.328,3.037,4,5.648,4s4.825-1.672,5.648-4H16.351z"/></svg>